<?xml version="1.0" standalone="no"?><!DOCTYPE svg PUBLIC "-//W3C//DTD SVG 1.1//EN" "http://www.w3.org/Graphics/SVG/1.1/DTD/svg11.dtd"><svg t="1695975881742" class="icon" viewBox="0 0 1024 1024" version="1.1" xmlns="http://www.w3.org/2000/svg" p-id="15265" xmlns:xlink="http://www.w3.org/1999/xlink" width="200" height="200"><path d="M663.771429 591.506286l183.588571 214.235428A73.142857 73.142857 0 0 1 791.82019 926.47619H232.17981a73.142857 73.142857 0 0 1-55.53981-120.734476l183.612952-214.211047c21.625905 13.165714 45.104762 23.576381 69.948953 30.793143L232.17981 853.333333H475.428571v-146.285714h73.142858v146.285714h243.248761l-198.022095-231.009523a290.986667 290.986667 0 0 0 69.973334-30.817524zM512 97.52381c134.656 0 243.809524 109.153524 243.809524 243.809523s-109.153524 243.809524-243.809524 243.809524-243.809524-109.153524-243.809524-243.809524S377.344 97.52381 512 97.52381z m0 73.142857a170.666667 170.666667 0 1 0 0 341.333333 170.666667 170.666667 0 0 0 0-341.333333z" p-id="15266"></path></svg>